<svg class="not-active-toggle" xmlns="http://www.w3.org/2000/svg" width="20" height="16" viewBox="0 0 20 16">
<path id="Path_96" data-name="Path 96" d="M-16.786-12.217H1.786a.686.686,0,0,0,.714-.653V-14.5a.686.686,0,0,0-.714-.653H-16.786a.686.686,0,0,0-.714.653v1.633A.686.686,0,0,0-16.786-12.217Zm0,6.531H1.786A.686.686,0,0,0,2.5-6.34V-7.973a.686.686,0,0,0-.714-.653H-16.786a.686.686,0,0,0-.714.653V-6.34A.686.686,0,0,0-16.786-5.687Zm0,6.531H1.786A.686.686,0,0,0,2.5.191V-1.442A.686.686,0,0,0,1.786-2.1H-16.786a.686.686,0,0,0-.714.653V.191A.686.686,0,0,0-16.786.844Z" transform="translate(17.5 15.156)" fill="#444c58"></path>
</svg>